<svg width="300" height="300" viewBox="0 0 300 300" fill="none" xmlns="http://www.w3.org/2000/svg">
<path d="M150 4.6875C67.1976 4.6875 0 69.7852 0 150C0 230.215 67.1976 295.312 150 295.312C232.802 295.312 300 230.215 300 150C300 69.7852 232.802 4.6875 150 4.6875Z" fill="#1ED760"/>
<path d="M242.597 135.902C239.452 135.902 237.516 135.141 234.794 133.617C191.73 108.715 114.734 102.738 64.8952 116.215C62.7177 116.801 59.996 117.738 57.0927 117.738C49.1089 117.738 43 111.703 43 103.91C43 95.9414 48.0806 91.4297 53.5242 89.9063C74.8145 83.8711 98.6452 81 124.593 81C168.746 81 215.016 89.9063 248.827 109.008C253.544 111.645 256.629 115.277 256.629 122.25C256.629 130.219 249.976 135.902 242.597 135.902ZM223.847 180.551C220.702 180.551 218.585 179.203 216.407 178.09C178.605 156.41 122.234 147.68 72.0927 160.863C69.1895 161.625 67.6169 162.387 64.8952 162.387C58.4234 162.387 53.1613 157.289 53.1613 151.02C53.1613 144.75 56.3065 140.59 62.5363 138.891C79.3508 134.32 96.5282 130.922 121.69 130.922C160.944 130.922 198.867 140.355 228.746 157.582C233.645 160.395 235.581 164.027 235.581 169.125C235.52 175.453 230.44 180.551 223.847 180.551ZM207.577 218.988C205.036 218.988 203.464 218.227 201.105 216.879C163.363 194.848 119.452 193.91 76.0847 202.523C73.7258 203.109 70.6411 204.047 68.8871 204.047C63.0202 204.047 59.3306 199.535 59.3306 194.789C59.3306 188.754 63.0202 185.883 67.5565 184.945C117.093 174.34 167.718 175.277 210.903 200.297C214.593 202.582 216.77 204.633 216.77 209.965C216.77 215.297 212.476 218.988 207.577 218.988Z" fill="black"/>
</svg>
