<svg width="300" height="300" viewBox="0 0 300 300" fill="none" xmlns="http://www.w3.org/2000/svg">
<path d="M150 300C232.842 300 300 232.842 300 150C300 67.1573 232.842 0 150 0C67.1572 0 0 67.1573 0 150C0 232.842 67.1572 300 150 300Z" fill="#FF0000"/>
<path d="M234.343 103.081C232.33 94.7843 226.399 88.2486 218.871 86.0307C205.224 82 150.5 82 150.5 82C150.5 82 95.7756 82 82.1294 86.0307C74.6006 88.2486 68.67 94.7843 66.6575 103.081C63 118.12 63 149.5 63 149.5C63 149.5 63 180.88 66.6575 195.919C68.67 204.216 74.6006 210.751 82.1294 212.969C95.7756 217 150.5 217 150.5 217C150.5 217 205.224 217 218.871 212.969C226.399 210.751 232.33 204.216 234.343 195.919C238 180.88 238 149.5 238 149.5C238 149.5 238 118.12 234.343 103.081ZM133 178.429V120.571L178.465 149.5L133 178.429Z" fill="white"/>
</svg>
